<svg width="12" height="12" viewBox="0 0 12 12" fill="none" xmlns="http://www.w3.org/2000/svg">
<path d="M6.00033 6.66675C4.22033 6.66675 0.666992 7.56008 0.666992 9.33341V11.3334H11.3337V9.33341C11.3337 7.56008 7.78032 6.66675 6.00033 6.66675ZM10.067 10.0667H1.93366V9.33341C1.93366 8.90675 4.02033 7.93341 6.00033 7.93341C7.98033 7.93341 10.067 8.90675 10.067 9.33341V10.0667ZM6.00033 6.00008C7.47366 6.00008 8.66699 4.80675 8.66699 3.33341C8.66699 1.86008 7.47366 0.666748 6.00033 0.666748C4.52699 0.666748 3.33366 1.86008 3.33366 3.33341C3.33366 4.80675 4.52699 6.00008 6.00033 6.00008ZM6.00033 1.93341C6.77366 1.93341 7.40033 2.56008 7.40033 3.33341C7.40033 4.10675 6.77366 4.73341 6.00033 4.73341C5.22699 4.73341 4.60033 4.10675 4.60033 3.33341C4.60033 2.56008 5.22699 1.93341 6.00033 1.93341Z" fill="#222737"/>
<path d="M6.00033 6.66675C4.22033 6.66675 0.666992 7.56008 0.666992 9.33341V11.3334H11.3337V9.33341C11.3337 7.56008 7.78032 6.66675 6.00033 6.66675ZM10.067 10.0667H1.93366V9.33341C1.93366 8.90675 4.02033 7.93341 6.00033 7.93341C7.98033 7.93341 10.067 8.90675 10.067 9.33341V10.0667ZM6.00033 6.00008C7.47366 6.00008 8.66699 4.80675 8.66699 3.33341C8.66699 1.86008 7.47366 0.666748 6.00033 0.666748C4.52699 0.666748 3.33366 1.86008 3.33366 3.33341C3.33366 4.80675 4.52699 6.00008 6.00033 6.00008ZM6.00033 1.93341C6.77366 1.93341 7.40033 2.56008 7.40033 3.33341C7.40033 4.10675 6.77366 4.73341 6.00033 4.73341C5.22699 4.73341 4.60033 4.10675 4.60033 3.33341C4.60033 2.56008 5.22699 1.93341 6.00033 1.93341Z" fill="white" fill-opacity="0.3"/>
</svg>
